<?xml version="1.0" encoding="UTF-8"?>
<svg width="236px" height="252px" viewBox="0 0 236 252" version="1.1" xmlns="http://www.w3.org/2000/svg" xmlns:xlink="http://www.w3.org/1999/xlink">
    <!-- Generator: Sketch 53.2 (72643) - https://sketchapp.com -->
    <title>Untitled 2</title>
    <desc>Created with Sketch.</desc>
    <g id="Page-1" stroke="none" stroke-width="1" fill="none" fill-rule="evenodd">
        <g id="Group" transform="translate(0.723000, 0.000000)" fill="#FFFFFF">
            <path d="M95.8856319,26.1752757 L101.764601,30.4823446 L101.230882,38.9598904 L102.339586,39.7789607 L101.798799,42.404043 L88.0745016,31.8157222 C88.0435601,31.8157222 88.0140604,31.8168889 87.9859415,31.8191843 L100.685169,41.6963468 L100.685169,43.6456853 L101.813415,44.4718453 C101.813415,45.0144601 101.813415,45.5570748 101.813415,46.1143549 C101.813415,46.1143549 101.813415,46.1143549 101.813415,46.6863002 L101.22878,46.6863002 C101.22878,47.0822623 101.22878,47.0822623 101.22878,47.0822623 L101.22878,47.6395424 C101.22878,47.6395424 101.22878,47.6395424 100.819536,47.6395424 C100.819536,48.1457959 100.819536,48.1797205 100.380343,48.6345816 L100.130866,51.2577592 C97.2613699,51.7684038 94.403973,50.8961138 91.5256189,49.5771365 L91.7576996,49.8100015 C92.3131024,50.3526162 93.4092923,50.3526162 93.8185365,50.7779089 C95.4701293,51.3205237 96.5663192,51.8631385 98.0717533,51.8631385 C98.6271562,51.8631385 99.182559,51.8631385 99.723346,51.8631385 C100.278749,51.8631385 100.819536,51.8631385 101.243396,51.8631385 L100.834152,56.6880104 L100.834152,57.0839725 L99.6150708,57.9893201 L99.1681285,65.1129541 L91.8710909,70.3001708 C92.1328168,70.5642606 92.4598554,70.7580268 92.8685053,70.869321 L100.293365,65.6338216 L100.293365,68.2589039 L98.7196502,69.5269156 L98.6138254,69.819884 L95.4484627,72.9922662 C95.0662202,72.9922662 94.8029551,72.9922662 94.6115874,72.9850849 C95.4312987,73.479738 94.9931155,73.479738 96.5663192,73.479738 L99.7379619,70.3120409 L100.293365,70.3120409 L99.7379619,72.922458 L98.641772,76.2368077 L100.834152,81.4576418 C105.496613,52.9630333 106.607418,26.5362271 108.098237,0.666700892 L127.990429,0.666700892 C130.051266,26.5362271 130.738212,52.9630333 135.400673,81.4576418 L138.5577,76.6327698 L137.03765,72.922458 C137.03765,72.5118306 137.03765,71.9692158 137.03765,71.9692158 L137.03765,71.2194703 L135.854244,70.3805841 C135.854244,69.819884 135.854244,74.1136664 135.314528,67.1934466 L135.314528,67.7541467 L141.630667,72.4463214 C141.630667,72.4463214 140.987031,73.0804742 140.26292,73.1518544 L140.750079,73.4944033 C141.700111,74.037018 142.825532,72.9371232 142.825532,72.9371232 L136.496863,68.2735692 L136.496863,65.9812115 L135.314528,65.0981988 L134.760225,55.5515417 L135.395522,56.0174272 L134.962197,44.0172221 L151.127344,31.7863917 C151.127344,31.2291116 151.127344,30.2612042 151.127344,29.7185894 L149.930627,30.6153606 L149.930627,31.0430447 L133.797488,43.3489366 L133.797488,41.150402 L134.502448,40.6178368 L134.275251,39.7496302 L134.962197,39.7496302 L150.04577,27.5187998 C149.809593,26.1994295 148.996367,25.4562632 147.971326,24.9912377 C148.411146,25.4264031 148.731675,25.9940008 148.865781,26.7492622 L133.812075,39.0551542 L132.572186,31.0430447 L133.60277,30.2288468 L131.659011,0.681366156 L168.973315,0.124086114 C170.595676,2.8811558 172.671129,7.5593751 174.863508,7.5593751 C188.57319,-6.19664279 191.043271,5.35958546 200.105107,5.35958546 C205.308355,1.2386462 209.561572,0.681366156 217.541834,0.124086114 C215.890242,2.20655364 213.829405,5.35958546 217.541834,5.9168655 C224.791304,0.696031421 224.250517,-0.418528664 234.277,0.124086114 L234.277,25.4656628 C229.614539,16.5198516 223.841272,18.0303738 223.841272,26.0082776 C224.791304,33.4435665 223.841272,39.2216807 220.538087,42.9466578 C227.94833,38.6790659 230.56457,45.5570748 234.262384,40.3362408 L234.262384,81.4869723 C229.994552,75.1369129 233.312353,58.7704779 224.235901,63.4633625 C219.588056,77.7913257 219.018037,79.9911153 205.834527,72.9517885 C205.834527,74.6089634 206.945332,80.3870775 204.752953,82.0442523 C199.549705,72.9517885 188.967818,79.4338353 182.259136,69.3881293 C181.703733,69.3881293 180.622159,74.6089634 179.511354,75.7088582 C174.308106,70.3413715 170.054889,72.9517885 164.851641,71.4412663 C159.487618,68.2735692 159.487618,71.9838811 153.728968,72.9517885 C155.921347,73.5090685 180.622159,77.7913257 187.477,79.9911153 L187.477,85.7545642 L191.730217,81.4869723 C196.933465,82.0295871 197.503483,82.4402145 206.404545,86.1651916 L205.849142,99.5252474 L213.274002,88.7902739 C220.128843,91.5473436 227.539086,95.2576555 234.277,98.8506452 L234.277,223.402735 C228.094489,230.970011 200.251266,241.147704 199.286619,240.751742 L199.14046,227.934301 L175.550454,234.548336 L175.550454,246.661844 L151.668131,250.240168 L151.668131,238.537287 L129.042771,240.458437 L129.042771,251.897343 L105.481997,252 L105.481997,240.443772 L82.0381493,238.669275 L82.0381493,249.682888 L57.7319656,246.251216 L57.7319656,234.387018 L34.9750637,228.491581 L34.9750637,240.311784 C25.518599,238.111995 4.51560087,228.608903 0.277,222.288175 L0.277,99.9358748 C6.98568207,95.2576555 17.0121655,89.8901687 24.9485803,87.2650864 L33.864258,100.47849 L40.1783117,82.0295871 C45.5277183,80.3870775 52.8064191,78.7299026 58.6966127,77.2193804 L61.8536396,79.9764501 L62.8182867,76.6474351 C67.6122904,75.1222476 81.745832,73.4944033 85.4582617,72.9371232 C82.3012349,71.426601 79.144208,68.2735692 78.0334022,65.0912068 C73.3855572,79.9764501 55.5542017,72.5118306 53.902609,59.8703728 C52.2510162,61.9528403 51.300985,68.816184 49.6493923,72.5264958 C36.4804978,93.6004806 11.2535147,56.7026757 0.277,89.4648761 L0.277,50.3672815 C15.5067314,76.251473 19.7453323,47.0675971 29.7718157,41.2748177 C19.7453323,40.3362408 9.74808057,12.7948744 0.277,39.2070154 L0.277,0.681366156 L11.2535147,0.124086114 C9.1926777,3.2917832 15.5067314,10.7270722 32.7826839,4.40634328 C59.6758757,-6.73925757 56.504233,7.57404036 64.4698795,9.08456258 L71.339336,0.138751378 L104.94121,0.138751378 L102.880373,31.2584422 L95.8856319,26.1752757 Z M90.4032783,46.3387921 C88.4729839,44.7963629 86.4774781,43.2527703 85.0636334,41.8614282 C85.0636334,41.3041482 84.5228463,41.3041482 84.5228463,41.3041482 L84.5228463,40.9081861 L83.9627116,40.9081861 C85.7115658,42.9452737 88.0368746,44.9097687 90.4032783,46.3387921 Z M83.8359007,40.7591473 L83.8359007,40.3655713 C83.8359007,40.3655713 83.8359007,40.9081861 83.8359007,40.3655713 L83.4120406,39.793626 L83.4120406,39.2510112 C83.4120406,39.2510112 83.4120406,39.2510112 82.8712536,39.2510112 L82.8712536,38.7083964 L82.8712536,38.1511164 C82.8712536,38.1511164 82.8712536,38.1511164 82.3304666,38.1511164 C82.3304666,37.5938363 82.3304666,37.5938363 82.3304666,37.1978742 C82.3304666,37.8590135 82.5906058,38.5906984 82.7500351,39.3488934 C83.0765533,39.8184726 83.440672,40.2904279 83.8359007,40.7591473 Z M143.339856,70.7178667 L144.31635,71.4412663 C145.953327,69.9160788 147.064133,68.816184 147.473377,64.5485921 L139.007302,58.6660709 L146.269309,63.9915539 C145.879596,68.0885279 144.852425,69.2838378 143.339856,70.7178667 Z M28.120223,147.407335 L35.5158507,145.324868 L28.120223,133.783305 L28.120223,147.407335 Z M40.7190987,144.239638 L51.300985,141.218594 L44.9869313,133.24069 L40.7190987,144.239638 Z M65.4199107,137.508282 L71.3247202,135.851107 L65.4199107,127.447911 L65.4199107,137.508282 Z M84.4936146,96.7535124 L84.4936146,125.805401 C93.4092923,112.591998 93.8039207,108.324406 98.6125403,95.8002702 L84.4936146,96.7535124 Z M138.543084,95.8002702 C141.685495,106.799218 141.685495,109.409635 150.747331,123.737599 L150.747331,96.7535124 C146.494114,96.1962324 141.700111,95.8002702 138.543084,95.8002702 Z M169.002547,135.308492 L184.919224,139.590749 L184.919224,128.445149 L188.602422,121.699127 C181.747581,116.33164 183.808418,109.438966 183.808418,97.8827378 L180.666007,102.546292 L173.241147,101.021104 L173.241147,124.705506 L169.002547,135.308492 Z M140.735463,196.403983 C145.397924,197.503878 190.663259,187.575494 200.689742,179.612256 L153.217412,179.612256 L140.735463,196.403983 Z M34.9750637,179.069641 C47.5885553,185.94765 80.7811849,195.436076 94.9147264,195.421427 L81.745832,179.069641 L34.9750637,179.069641 Z M117.540086,204.381887 L145.967943,169.185253 L222.78893,168.642638 L222.78893,158.567601 L164.340086,142.743781 C123.342584,127.447911 125.944208,49.8246667 123.342584,6.45948028 L113.301485,6.45948028 C109.194427,49.8246667 113.301485,127.462576 71.7485803,142.186501 L11.2535147,159.110216 L11.2535147,168.627973 L90.8076683,168.627973 L117.540086,204.381887 Z M105.382854,239.984967 L105.382854,240 L129.121267,240 L129.121267,228.560242 L151.74877,226.47072 L151.74877,238.466682 L175.341011,234.077182 L175.341011,222.216513 L199.079425,215.01593 L199.079425,226.996859 C202.236751,225.884451 220.625251,218.39825 222.277,215.602199 L222.277,174.112407 C174.931728,216.158403 58.1837544,217.27081 11.277,173 L11.277,215.752524 C17.0361964,220.698228 29.6508829,226.185102 35.0007963,227.29751 L35.0007963,215.19632 L57.8914094,221.945928 L57.8914094,233.641239 L81.7759955,237.86538 L81.922168,226.019744 L105.382854,228.54521 L105.382854,239.984967 Z M95.8856319,26.1752757 L93.829314,24.6687697 C91.2182545,24.1080696 88.0674787,26.3213595 87.6736317,28.9625522 L101.224885,39.0551542 L101.230882,38.9598904 L88.7614472,29.7479199 C89.1560756,27.1228376 92.3131024,24.923048 94.9293423,25.480328 L95.8856319,26.1752757 Z M87.9859415,31.8191843 L86.9880463,31.0430447 C86.0398962,31.0430447 86.4483301,32.1496896 86.4483301,33.2563346 L100.685169,43.7915946 L100.685169,43.6456853 L87.5337146,34.0155118 C87.5337146,32.9514394 87.1506935,31.887367 87.9859415,31.8191843 Z M100.380343,48.6345816 L100.685169,45.4294291 C99.6013503,49.8456167 94.927219,49.0707084 90.4032783,46.3387921 C90.5482782,46.4546563 90.6929102,46.5705141 90.8369001,46.6863002 L91.2315284,47.0822623 C91.7723154,47.0822623 91.7723154,47.0822623 92.3277183,47.6395424 C92.3277183,47.6395424 92.3277183,47.6395424 92.8685053,47.6395424 C93.4239082,48.1821571 93.8185365,48.1821571 94.5054822,48.7394372 L94.9293423,48.7394372 C95.4701293,48.7394372 96.0109163,49.2967172 96.5517033,49.2967172 C97.121722,49.2967172 97.5309663,49.2967172 98.6271562,49.2967172 L99.182559,49.2967172 C99.723346,49.2967172 99.723346,48.7394372 99.723346,48.7394372 C100.278749,48.7394372 100.278749,48.7394372 100.278749,48.7394372 C100.314988,48.7020932 100.348798,48.6672517 100.380343,48.6345816 Z M83.9627116,40.9081861 C83.9200964,40.8585474 83.8778235,40.8088656 83.8359007,40.7591473 L83.8359007,40.9081861 L83.9627116,40.9081861 Z M82.7500351,39.3488934 C82.8204738,39.6838771 82.8712536,40.0240356 82.8712536,40.3655713 L83.4120406,40.3655713 C83.4120406,40.9081861 83.4120406,40.9081861 83.4120406,40.9081861 L83.4120406,41.3041482 C83.8359007,41.3041482 83.8359007,41.8614282 83.8359007,41.8614282 C83.8359007,42.404043 83.8359007,42.404043 84.5228463,42.404043 C84.5228463,42.9613231 84.5228463,42.9613231 84.5228463,42.9613231 C84.5228463,43.3572852 84.5228463,43.3572852 85.0636334,43.3572852 L85.0636334,44.0172221 C85.4728776,44.0172221 85.4728776,44.0172221 85.4728776,44.0172221 C85.4728776,44.4425147 85.4728776,44.4425147 85.4728776,44.4425147 L86.0282804,44.9851295 C87.5337146,47.0529318 89.7114785,48.1381613 91.2169126,49.2673867 L91.5256189,49.5771365 C91.2434705,49.4478447 90.9611206,49.3142608 90.6785383,49.1772667 L88.6217819,47.5099216 C84.9458768,44.8834843 81.7805141,41.150402 81.2407979,36.4434721 C81.5329217,37.3654168 82.0567133,38.3517988 82.7500351,39.3488934 Z M99.6150708,57.9893201 L99.7078447,56.510634 L89.7158012,63.9915539 C89.7158012,67.1786914 89.7158012,69.819884 91.7579707,70.3805841 L91.8710909,70.3001708 C90.8222842,69.2418912 90.8222842,67.0543392 90.8222842,64.5192615 L99.6150708,57.9893201 Z M98.7196502,69.5269156 L99.1681285,68.2853363 L93.3917063,72.4315661 C94.1291933,72.8610801 93.9850341,72.9615728 94.6115874,72.9850849 C94.5783586,72.9650331 94.5430628,72.9441684 94.5054822,72.922458 L98.7196502,69.5269156 Z M137.03765,71.2194703 L139.559323,73.0070215 C139.789729,73.139689 140.030471,73.1747684 140.26292,73.1518544 L137.03765,70.8839862 L137.03765,71.2194703 Z M136.496863,65.9812115 L143.118533,70.926529 C143.193416,70.8561919 143.267196,70.7867539 143.339856,70.7178667 L136.496863,65.6484869 L136.496863,65.9812115 Z M139.007302,58.6660709 L135.395522,56.0174272 L135.400673,56.1600609 L139.007302,58.6660709 Z M149.930627,30.6153606 L149.930627,28.9625522 L134.502448,40.6178368 L134.962197,42.3747125 L134.962197,41.8320977 L149.930627,30.6153606 Z M147.971326,24.9912377 C146.64107,23.6750598 144.219558,23.5703573 142.56423,23.1489773 L133.60277,30.2288468 L133.705232,31.7863917 L143.731716,23.9404753 C144.974858,24.2543764 146.649267,24.3914653 147.971326,24.9912377 Z M157.369958,120.932126 C159.397541,122.437163 164.196639,123.558563 166.807699,123.543808 C167.347415,90.005088 166.807699,91.1264882 167.347415,91.1264882 L181.044537,94.3136257 L181.044537,85.7260609 C168.310152,82.5389234 155.707049,81.0338862 143.118533,79.5140938 L143.118533,87.3934059 L157.369958,89.4886537 C157.369958,100.687901 157.369958,109.718124 157.369958,120.932126 Z M8.81671622,10.8283301 C14.5785515,34.776127 34.0083354,35.882772 50.2873435,32.1644449 L47.1365677,29.5232523 L53.4381192,20.9356874 C49.7330403,13.04162 27.1524807,32.7103897 19.3484759,18.30925 C35.0877678,24.1228249 46.5968515,5.56070011 56.0200049,17.8961026 L59.7250838,13.04162 C44.0003789,-3.44001221 23.0535548,22.5882772 8.81671622,10.8283301 Z M24.0017049,20.3749873 C30.8575596,26.3361148 43.4460757,13.04162 53.4527061,17.8813473 C46.0571353,9.85448255 33.4394453,24.1080696 24.0017049,20.3749873 Z M68.6376949,39.6306095 L96.4257866,5.54594485 L73.4222062,5.54594485 L54.5467255,29.508497 L68.6376949,39.6306095 Z M8.277,65.1129541 C53.4527061,90.0198433 39.7409968,43.7915946 61.7964271,42.2718022 C40.280713,34.2449374 40.8350162,67.7541467 20.8509292,65.1129541 C35.1023547,64.5670093 36.6193949,37.4173196 50.3019304,37.9780197 C25.5187451,33.2710899 25.5187451,66.6475018 8.277,65.1129541 Z M30.3178434,60.8044164 C37.1591111,58.7239239 39.7409968,43.7915946 52.3586868,39.6306095 C40.2953,38.5092093 37.6988273,55.5515417 30.3178434,60.8044164 Z M63.9844659,67.7393915 C80.6864948,67.7393915 73.9765093,46.9787321 63.4301627,58.1927343 C66.0412223,50.7265697 72.3281868,52.3791595 74.9246595,55.5662969 C72.3281868,49.7379668 69.191998,49.192022 62.8904465,49.7379668 C78.6297384,40.1913097 76.0186788,68.3000916 86.4337431,66.0868017 L86.4337431,62.3389641 L96.4257866,53.8841966 C83.9831398,57.0713341 79.1694546,35.3368271 61.242124,44.8834843 C51.8043836,50.7118144 54.5467255,67.7393915 63.9844659,67.7393915 Z M164.196639,39.6306095 L169.389585,35.882772 L147.348741,5 L138.873738,5 L164.196639,39.6306095 Z M171.460928,34.2301822 L173.094663,33.2563346 L153.110576,5.54594485 L150.499517,5 L171.460928,34.2301822 Z M175.15142,31.0430447 L179.935931,27.8559072 L164.196639,5.54594485 L156.246765,5.54594485 L175.15142,31.0430447 Z M205.12755,38.5092093 C218.824673,46.9787321 218.824673,31.0430447 218.824673,16.6271497 C219.918692,11.9202198 222.938186,11.9202198 228.277,8.73308232 C219.904105,7.75923476 214.579878,8.17238221 209.226476,13.0268648 C200.459734,16.6271497 208.832629,6.10664496 209.226476,5.54594485 C201.437058,5 185.143463,21.4816322 189.388258,6.10664496 C187.331502,4.02615244 178.287609,7.75923476 177.339459,13.0268648 C178.856499,18.2944948 182.532404,24.1080696 186.777199,28.9625522 C190.482278,28.9625522 193.093337,26.3213595 197.731979,28.9625522 C206.22157,28.9625522 210.874799,16.641905 217.17635,11.374275 C217.17635,12.4809199 210.466365,33.2563346 205.681853,33.2563346 C206.22157,36.4434721 206.22157,35.882772 205.12755,38.5092093 Z M186.777199,23.1489773 C193.093337,21.4963875 197.731979,13.04162 201.976775,13.04162 C201.437058,13.04162 184.735029,31.0430447 186.777199,23.1489773 Z M199.788736,31.6037448 C205.12755,34.776127 209.912062,26.7492622 212.931555,19.415895 C209.226476,22.6030325 205.12755,29.5232523 199.788736,31.6037448 Z M155.707049,41.6963468 C159.397541,42.6701944 161.600167,44.8834843 163.088033,48.0706218 C164.736356,43.3489366 158.303522,39.6306095 155.707049,41.6963468 Z M174.042814,49.7379668 C187.739936,77.3008039 193.093337,67.1934466 201.437058,74.0694006 C202.516491,66.603236 191.430428,62.3094535 195.675223,60.7749059 C219.21852,79.8977307 217.70148,52.7480411 227.70811,47.4804111 C221.406558,42.2275364 213.471271,56.4811234 204.55866,47.4804111 C206.746699,46.3737662 209.211889,46.3737662 212.523121,47.4804111 C211.429102,40.5601913 195.135507,39.0256436 194.595791,38.4796988 C196.244113,36.4139615 199.380302,35.8532614 201.437058,36.4139615 C199.380302,30.0396866 182.532404,31.0135341 178.287609,36.827109 C202.516491,39.0403989 199.774149,67.1639361 214.579878,53.8546861 C199.774149,80.4436756 189.373672,26.7197517 176.230852,40.1617991 C176.230852,41.1208914 193.487184,58.1632238 191.984731,65.0834436 C185.68318,61.3503612 176.785155,35.3073166 167.332828,44.3080289 C161.045864,51.2282487 171.037907,57.6172789 173.648967,62.8701537 C168.835281,63.5636512 160.49156,49.1625114 159.397541,47.4951664 C152.00197,40.1765544 137.911001,43.3489366 137.911001,54.4301414 C142.155796,58.7239239 146.794438,60.8044164 153.650293,66.0720464 C158.843238,57.6320342 143.103946,54.4301414 149.930627,49.1772667 C164.196639,76.7401038 161.58558,59.2993793 176.230852,70.3805841 C183.07212,64.0063091 167.755849,48.6460771 174.042814,49.7379668 Z M191.021994,131.039483 C204.033531,135.200468 222.938186,151.65259 221.421145,136.307113 L221.421145,101.263356 L212.537708,96.9695736 C211.983405,106.516231 212.537708,111.783861 205.681853,110.824768 C198.30087,109.157423 200.474321,103.343849 200.474321,92.6757912 C197.731979,91.1412435 195.135507,90.0198433 190.482278,89.4886537 L189.796692,108.596723 C196.798416,129.918083 209.226476,122.437163 212.931555,121.478071 C212.537708,127.719548 214.025574,128.826193 210.466365,129.918083 C206.761286,131.452631 194.595791,123.558563 191.021994,120.371426 L191.021994,131.039483 Z M63.9844659,123.971711 C67.6749578,122.437163 71.8030576,121.891218 74.9246595,121.463315 L74.3849432,89.4738984 L90.6639513,86.8327058 L90.6639513,79.912486 C85.4710061,79.912486 69.7317142,81.9929785 64.3783128,83.0996235 L63.9844659,123.971711 Z M10.8734726,150 C14.0096615,146.399715 18.2544566,143.625725 21.4052323,142.120688 L21.4052323,114.011906 L33.4394453,133.119976 L44.0003789,103.343849 L44.0003789,130.493538 C47.1511546,128.826193 51.8043836,127.704793 54.9405725,126.745701 L54.5467255,85.3276687 C49.7476272,86.8474611 43.4460757,89.0755063 42.9063595,89.4886537 L33.4540322,113.451206 L22.4992517,96.9695736 C18.2544566,97.5302737 14.0096615,100.141956 10.8734726,102.222448 L10.8734726,150 Z" id="Combined-Shape"></path>
        </g>
    </g>
</svg>