<?xml version="1.0" encoding="utf-8"?>
<!-- Generator: Adobe Illustrator 25.2.3, SVG Export Plug-In . SVG Version: 6.00 Build 0)  -->
<svg version="1.1" id="Слой_7" xmlns="http://www.w3.org/2000/svg" xmlns:xlink="http://www.w3.org/1999/xlink" x="0px" y="0px"
	 viewBox="0 0 200 200" style="enable-background:new 0 0 200 200;" xml:space="preserve">
<style type="text/css">
	.st0{fill:none;}
	.st1{fill:none;stroke:#000000;stroke-width:0.3;stroke-linecap:square;stroke-linejoin:bevel;}
	.st2{fill:#49453F;stroke:#49453F;stroke-miterlimit:10;}
	.st3{fill:url(#SVGID_1_);fill-opacity:0.5;}
</style>
<pattern  x="-538.41" y="-841" width="72" height="72" patternUnits="userSpaceOnUse" id="Diamond" viewBox="72.21 -144.21 72 72" style="overflow:visible;">
	<g>
		<rect x="72.21" y="-144.21" class="st0" width="72" height="72"/>
		<g>
			<line class="st1" x1="144.21" y1="-72.21" x2="216.21" y2="-0.21"/>
			<line class="st1" x1="216.21" y1="-72.21" x2="144.21" y2="-0.21"/>
			<line class="st1" x1="210.21" y1="-72.21" x2="141.21" y2="-3.21"/>
			<line class="st1" x1="204.21" y1="-72.21" x2="141.21" y2="-9.21"/>
			<line class="st1" x1="198.21" y1="-72.21" x2="141.2" y2="-15.2"/>
			<line class="st1" x1="192.21" y1="-72.21" x2="141.2" y2="-21.2"/>
			<line class="st1" x1="186.21" y1="-72.21" x2="141.2" y2="-27.2"/>
			<line class="st1" x1="180.21" y1="-72.21" x2="141.19" y2="-33.19"/>
			<line class="st1" x1="174.21" y1="-72.21" x2="141.19" y2="-39.19"/>
			<line class="st1" x1="168.21" y1="-72.21" x2="141.19" y2="-45.18"/>
			<line class="st1" x1="162.21" y1="-72.21" x2="141.18" y2="-51.18"/>
			<line class="st1" x1="156.21" y1="-72.21" x2="141.18" y2="-57.18"/>
			<line class="st1" x1="150.21" y1="-72.21" x2="141.17" y2="-63.17"/>
			<line class="st1" x1="144.21" y1="-72.21" x2="141.17" y2="-69.17"/>
		</g>
		<g>
			<line class="st1" x1="72.21" y1="-72.21" x2="144.21" y2="-0.21"/>
			<line class="st1" x1="78.21" y1="-72.21" x2="147.21" y2="-3.21"/>
			<line class="st1" x1="84.21" y1="-72.21" x2="147.22" y2="-9.21"/>
			<line class="st1" x1="90.21" y1="-72.21" x2="147.22" y2="-15.2"/>
			<line class="st1" x1="96.21" y1="-72.21" x2="147.23" y2="-21.2"/>
			<line class="st1" x1="102.21" y1="-72.21" x2="147.23" y2="-27.2"/>
			<line class="st1" x1="108.21" y1="-72.21" x2="147.23" y2="-33.19"/>
			<line class="st1" x1="114.21" y1="-72.21" x2="147.24" y2="-39.19"/>
			<line class="st1" x1="120.21" y1="-72.21" x2="147.24" y2="-45.18"/>
			<line class="st1" x1="126.21" y1="-72.21" x2="147.24" y2="-51.18"/>
			<line class="st1" x1="132.21" y1="-72.21" x2="147.25" y2="-57.18"/>
			<line class="st1" x1="138.21" y1="-72.21" x2="147.25" y2="-63.17"/>
			<line class="st1" x1="144.21" y1="-72.21" x2="147.26" y2="-69.17"/>
			<line class="st1" x1="144.21" y1="-72.21" x2="72.21" y2="-0.21"/>
			<line class="st1" x1="138.21" y1="-72.21" x2="69.21" y2="-3.21"/>
			<line class="st1" x1="132.21" y1="-72.21" x2="69.21" y2="-9.21"/>
			<line class="st1" x1="126.21" y1="-72.21" x2="69.2" y2="-15.2"/>
			<line class="st1" x1="120.21" y1="-72.21" x2="69.2" y2="-21.2"/>
			<line class="st1" x1="114.21" y1="-72.21" x2="69.2" y2="-27.2"/>
			<line class="st1" x1="108.21" y1="-72.21" x2="69.19" y2="-33.19"/>
			<line class="st1" x1="102.21" y1="-72.21" x2="69.19" y2="-39.19"/>
			<line class="st1" x1="96.21" y1="-72.21" x2="69.19" y2="-45.18"/>
			<line class="st1" x1="90.21" y1="-72.21" x2="69.18" y2="-51.18"/>
			<line class="st1" x1="84.21" y1="-72.21" x2="69.18" y2="-57.18"/>
			<line class="st1" x1="78.21" y1="-72.21" x2="69.17" y2="-63.17"/>
			<line class="st1" x1="72.21" y1="-72.21" x2="69.17" y2="-69.17"/>
		</g>
		<g>
			<line class="st1" x1="0.21" y1="-72.21" x2="72.21" y2="-0.21"/>
			<line class="st1" x1="6.21" y1="-72.21" x2="75.21" y2="-3.21"/>
			<line class="st1" x1="12.21" y1="-72.21" x2="75.22" y2="-9.21"/>
			<line class="st1" x1="18.21" y1="-72.21" x2="75.22" y2="-15.2"/>
			<line class="st1" x1="24.21" y1="-72.21" x2="75.23" y2="-21.2"/>
			<line class="st1" x1="30.21" y1="-72.21" x2="75.23" y2="-27.2"/>
			<line class="st1" x1="36.21" y1="-72.21" x2="75.23" y2="-33.19"/>
			<line class="st1" x1="42.21" y1="-72.21" x2="75.24" y2="-39.19"/>
			<line class="st1" x1="48.21" y1="-72.21" x2="75.24" y2="-45.18"/>
			<line class="st1" x1="54.21" y1="-72.21" x2="75.24" y2="-51.18"/>
			<line class="st1" x1="60.21" y1="-72.21" x2="75.25" y2="-57.18"/>
			<line class="st1" x1="66.21" y1="-72.21" x2="75.25" y2="-63.17"/>
			<line class="st1" x1="72.21" y1="-72.21" x2="75.26" y2="-69.17"/>
			<line class="st1" x1="72.21" y1="-72.21" x2="0.21" y2="-0.21"/>
		</g>
		<g>
			<line class="st1" x1="144.21" y1="-144.21" x2="216.21" y2="-72.21"/>
			<line class="st1" x1="141.21" y1="-141.21" x2="210.21" y2="-72.21"/>
			<line class="st1" x1="141.21" y1="-135.22" x2="204.21" y2="-72.21"/>
			<line class="st1" x1="141.2" y1="-129.22" x2="198.21" y2="-72.21"/>
			<line class="st1" x1="141.2" y1="-123.23" x2="192.21" y2="-72.21"/>
			<line class="st1" x1="141.2" y1="-117.23" x2="186.21" y2="-72.21"/>
			<line class="st1" x1="141.19" y1="-111.23" x2="180.21" y2="-72.21"/>
			<line class="st1" x1="141.19" y1="-105.24" x2="174.21" y2="-72.21"/>
			<line class="st1" x1="141.19" y1="-99.24" x2="168.21" y2="-72.21"/>
			<line class="st1" x1="141.18" y1="-93.24" x2="162.21" y2="-72.21"/>
			<line class="st1" x1="141.18" y1="-87.25" x2="156.21" y2="-72.21"/>
			<line class="st1" x1="141.17" y1="-81.25" x2="150.21" y2="-72.21"/>
			<line class="st1" x1="141.17" y1="-75.26" x2="144.21" y2="-72.21"/>
			<line class="st1" x1="216.21" y1="-144.21" x2="144.21" y2="-72.21"/>
			<line class="st1" x1="210.21" y1="-144.21" x2="141.21" y2="-75.21"/>
			<line class="st1" x1="204.21" y1="-144.21" x2="141.21" y2="-81.21"/>
			<line class="st1" x1="198.21" y1="-144.21" x2="141.2" y2="-87.2"/>
			<line class="st1" x1="192.21" y1="-144.21" x2="141.2" y2="-93.2"/>
			<line class="st1" x1="186.21" y1="-144.21" x2="141.2" y2="-99.2"/>
			<line class="st1" x1="180.21" y1="-144.21" x2="141.19" y2="-105.19"/>
			<line class="st1" x1="174.21" y1="-144.21" x2="141.19" y2="-111.19"/>
			<line class="st1" x1="168.21" y1="-144.21" x2="141.19" y2="-117.18"/>
			<line class="st1" x1="162.21" y1="-144.21" x2="141.18" y2="-123.18"/>
			<line class="st1" x1="156.21" y1="-144.21" x2="141.18" y2="-129.18"/>
			<line class="st1" x1="150.21" y1="-144.21" x2="141.17" y2="-135.17"/>
			<line class="st1" x1="144.21" y1="-144.21" x2="141.17" y2="-141.17"/>
		</g>
		<g>
			<line class="st1" x1="72.21" y1="-144.21" x2="144.21" y2="-72.21"/>
			<line class="st1" x1="69.21" y1="-141.21" x2="138.21" y2="-72.21"/>
			<line class="st1" x1="69.21" y1="-135.22" x2="132.21" y2="-72.21"/>
			<line class="st1" x1="69.2" y1="-129.22" x2="126.21" y2="-72.21"/>
			<line class="st1" x1="69.2" y1="-123.23" x2="120.21" y2="-72.21"/>
			<line class="st1" x1="69.2" y1="-117.23" x2="114.21" y2="-72.21"/>
			<line class="st1" x1="69.19" y1="-111.23" x2="108.21" y2="-72.21"/>
			<line class="st1" x1="69.19" y1="-105.24" x2="102.21" y2="-72.21"/>
			<line class="st1" x1="69.19" y1="-99.24" x2="96.21" y2="-72.21"/>
			<line class="st1" x1="69.18" y1="-93.24" x2="90.21" y2="-72.21"/>
			<line class="st1" x1="69.18" y1="-87.25" x2="84.21" y2="-72.21"/>
			<line class="st1" x1="69.17" y1="-81.25" x2="78.21" y2="-72.21"/>
			<line class="st1" x1="69.17" y1="-75.26" x2="72.21" y2="-72.21"/>
			<line class="st1" x1="78.21" y1="-144.21" x2="147.21" y2="-75.21"/>
			<line class="st1" x1="84.21" y1="-144.21" x2="147.22" y2="-81.21"/>
			<line class="st1" x1="90.21" y1="-144.21" x2="147.22" y2="-87.2"/>
			<line class="st1" x1="96.21" y1="-144.21" x2="147.23" y2="-93.2"/>
			<line class="st1" x1="102.21" y1="-144.21" x2="147.23" y2="-99.2"/>
			<line class="st1" x1="108.21" y1="-144.21" x2="147.23" y2="-105.19"/>
			<line class="st1" x1="114.21" y1="-144.21" x2="147.24" y2="-111.19"/>
			<line class="st1" x1="120.21" y1="-144.21" x2="147.24" y2="-117.18"/>
			<line class="st1" x1="126.21" y1="-144.21" x2="147.24" y2="-123.18"/>
			<line class="st1" x1="132.21" y1="-144.21" x2="147.25" y2="-129.18"/>
			<line class="st1" x1="138.21" y1="-144.21" x2="147.25" y2="-135.17"/>
			<line class="st1" x1="144.21" y1="-144.21" x2="147.26" y2="-141.17"/>
			<line class="st1" x1="144.21" y1="-144.21" x2="72.21" y2="-72.21"/>
			<line class="st1" x1="138.21" y1="-144.21" x2="69.21" y2="-75.21"/>
			<line class="st1" x1="132.21" y1="-144.21" x2="69.21" y2="-81.21"/>
			<line class="st1" x1="126.21" y1="-144.21" x2="69.2" y2="-87.2"/>
			<line class="st1" x1="120.21" y1="-144.21" x2="69.2" y2="-93.2"/>
			<line class="st1" x1="114.21" y1="-144.21" x2="69.2" y2="-99.2"/>
			<line class="st1" x1="108.21" y1="-144.21" x2="69.19" y2="-105.19"/>
			<line class="st1" x1="102.21" y1="-144.21" x2="69.19" y2="-111.19"/>
			<line class="st1" x1="96.21" y1="-144.21" x2="69.19" y2="-117.18"/>
			<line class="st1" x1="90.21" y1="-144.21" x2="69.18" y2="-123.18"/>
			<line class="st1" x1="84.21" y1="-144.21" x2="69.18" y2="-129.18"/>
			<line class="st1" x1="78.21" y1="-144.21" x2="69.17" y2="-135.17"/>
			<line class="st1" x1="72.21" y1="-144.21" x2="69.17" y2="-141.17"/>
			<line class="st1" x1="147.21" y1="-141.21" x2="78.21" y2="-72.21"/>
			<line class="st1" x1="147.22" y1="-135.22" x2="84.21" y2="-72.21"/>
			<line class="st1" x1="147.22" y1="-129.22" x2="90.21" y2="-72.21"/>
			<line class="st1" x1="147.23" y1="-123.23" x2="96.21" y2="-72.21"/>
			<line class="st1" x1="147.23" y1="-117.23" x2="102.21" y2="-72.21"/>
			<line class="st1" x1="147.23" y1="-111.23" x2="108.21" y2="-72.21"/>
			<line class="st1" x1="147.24" y1="-105.24" x2="114.21" y2="-72.21"/>
			<line class="st1" x1="147.24" y1="-99.24" x2="120.21" y2="-72.21"/>
			<line class="st1" x1="147.24" y1="-93.24" x2="126.21" y2="-72.21"/>
			<line class="st1" x1="147.25" y1="-87.25" x2="132.21" y2="-72.21"/>
			<line class="st1" x1="147.25" y1="-81.25" x2="138.21" y2="-72.21"/>
			<line class="st1" x1="147.26" y1="-75.25" x2="144.21" y2="-72.21"/>
		</g>
		<g>
			<line class="st1" x1="0.21" y1="-144.21" x2="72.21" y2="-72.21"/>
			<line class="st1" x1="6.21" y1="-144.21" x2="75.21" y2="-75.21"/>
			<line class="st1" x1="12.21" y1="-144.21" x2="75.22" y2="-81.21"/>
			<line class="st1" x1="18.21" y1="-144.21" x2="75.22" y2="-87.2"/>
			<line class="st1" x1="24.21" y1="-144.21" x2="75.23" y2="-93.2"/>
			<line class="st1" x1="30.21" y1="-144.21" x2="75.23" y2="-99.2"/>
			<line class="st1" x1="36.21" y1="-144.21" x2="75.23" y2="-105.19"/>
			<line class="st1" x1="42.21" y1="-144.21" x2="75.24" y2="-111.19"/>
			<line class="st1" x1="48.21" y1="-144.21" x2="75.24" y2="-117.18"/>
			<line class="st1" x1="54.21" y1="-144.21" x2="75.24" y2="-123.18"/>
			<line class="st1" x1="60.21" y1="-144.21" x2="75.25" y2="-129.18"/>
			<line class="st1" x1="66.21" y1="-144.21" x2="75.25" y2="-135.17"/>
			<line class="st1" x1="72.21" y1="-144.21" x2="75.26" y2="-141.17"/>
			<line class="st1" x1="72.21" y1="-144.21" x2="0.21" y2="-72.21"/>
			<line class="st1" x1="75.21" y1="-141.21" x2="6.21" y2="-72.21"/>
			<line class="st1" x1="75.22" y1="-135.22" x2="12.21" y2="-72.21"/>
			<line class="st1" x1="75.22" y1="-129.22" x2="18.21" y2="-72.21"/>
			<line class="st1" x1="75.23" y1="-123.23" x2="24.21" y2="-72.21"/>
			<line class="st1" x1="75.23" y1="-117.23" x2="30.21" y2="-72.21"/>
			<line class="st1" x1="75.23" y1="-111.23" x2="36.21" y2="-72.21"/>
			<line class="st1" x1="75.24" y1="-105.24" x2="42.21" y2="-72.21"/>
			<line class="st1" x1="75.24" y1="-99.24" x2="48.21" y2="-72.21"/>
			<line class="st1" x1="75.24" y1="-93.24" x2="54.21" y2="-72.21"/>
			<line class="st1" x1="75.25" y1="-87.25" x2="60.21" y2="-72.21"/>
			<line class="st1" x1="75.25" y1="-81.25" x2="66.21" y2="-72.21"/>
			<line class="st1" x1="75.26" y1="-75.25" x2="72.21" y2="-72.21"/>
		</g>
		<g>
			<line class="st1" x1="144.21" y1="-216.21" x2="216.21" y2="-144.21"/>
			<line class="st1" x1="141.21" y1="-213.21" x2="210.21" y2="-144.21"/>
			<line class="st1" x1="141.21" y1="-207.22" x2="204.21" y2="-144.21"/>
			<line class="st1" x1="141.2" y1="-201.22" x2="198.21" y2="-144.21"/>
			<line class="st1" x1="141.2" y1="-195.23" x2="192.21" y2="-144.21"/>
			<line class="st1" x1="141.2" y1="-189.23" x2="186.21" y2="-144.21"/>
			<line class="st1" x1="141.19" y1="-183.23" x2="180.21" y2="-144.21"/>
			<line class="st1" x1="141.19" y1="-177.24" x2="174.21" y2="-144.21"/>
			<line class="st1" x1="141.19" y1="-171.24" x2="168.21" y2="-144.21"/>
			<line class="st1" x1="141.18" y1="-165.24" x2="162.21" y2="-144.21"/>
			<line class="st1" x1="141.18" y1="-159.25" x2="156.21" y2="-144.21"/>
			<line class="st1" x1="141.17" y1="-153.25" x2="150.21" y2="-144.21"/>
			<line class="st1" x1="141.17" y1="-147.26" x2="144.21" y2="-144.21"/>
			<line class="st1" x1="216.21" y1="-216.21" x2="144.21" y2="-144.21"/>
		</g>
		<g>
			<line class="st1" x1="72.21" y1="-216.21" x2="144.21" y2="-144.21"/>
			<line class="st1" x1="69.21" y1="-213.21" x2="138.21" y2="-144.21"/>
			<line class="st1" x1="69.21" y1="-207.22" x2="132.21" y2="-144.21"/>
			<line class="st1" x1="69.2" y1="-201.22" x2="126.21" y2="-144.21"/>
			<line class="st1" x1="69.2" y1="-195.23" x2="120.21" y2="-144.21"/>
			<line class="st1" x1="69.2" y1="-189.23" x2="114.21" y2="-144.21"/>
			<line class="st1" x1="69.19" y1="-183.23" x2="108.21" y2="-144.21"/>
			<line class="st1" x1="69.19" y1="-177.24" x2="102.21" y2="-144.21"/>
			<line class="st1" x1="69.19" y1="-171.24" x2="96.21" y2="-144.21"/>
			<line class="st1" x1="69.18" y1="-165.24" x2="90.21" y2="-144.21"/>
			<line class="st1" x1="69.18" y1="-159.25" x2="84.21" y2="-144.21"/>
			<line class="st1" x1="69.17" y1="-153.25" x2="78.21" y2="-144.21"/>
			<line class="st1" x1="69.17" y1="-147.26" x2="72.21" y2="-144.21"/>
			<line class="st1" x1="144.21" y1="-216.21" x2="72.21" y2="-144.21"/>
			<line class="st1" x1="147.21" y1="-213.21" x2="78.21" y2="-144.21"/>
			<line class="st1" x1="147.22" y1="-207.22" x2="84.21" y2="-144.21"/>
			<line class="st1" x1="147.22" y1="-201.22" x2="90.21" y2="-144.21"/>
			<line class="st1" x1="147.23" y1="-195.23" x2="96.21" y2="-144.21"/>
			<line class="st1" x1="147.23" y1="-189.23" x2="102.21" y2="-144.21"/>
			<line class="st1" x1="147.23" y1="-183.23" x2="108.21" y2="-144.21"/>
			<line class="st1" x1="147.24" y1="-177.24" x2="114.21" y2="-144.21"/>
			<line class="st1" x1="147.24" y1="-171.24" x2="120.21" y2="-144.21"/>
			<line class="st1" x1="147.24" y1="-165.24" x2="126.21" y2="-144.21"/>
			<line class="st1" x1="147.25" y1="-159.25" x2="132.21" y2="-144.21"/>
			<line class="st1" x1="147.25" y1="-153.25" x2="138.21" y2="-144.21"/>
			<line class="st1" x1="147.26" y1="-147.25" x2="144.21" y2="-144.21"/>
		</g>
		<g>
			<line class="st1" x1="0.21" y1="-216.21" x2="72.21" y2="-144.21"/>
			<line class="st1" x1="72.21" y1="-216.21" x2="0.21" y2="-144.21"/>
			<line class="st1" x1="75.21" y1="-213.21" x2="6.21" y2="-144.21"/>
			<line class="st1" x1="75.22" y1="-207.22" x2="12.21" y2="-144.21"/>
			<line class="st1" x1="75.22" y1="-201.22" x2="18.21" y2="-144.21"/>
			<line class="st1" x1="75.23" y1="-195.23" x2="24.21" y2="-144.21"/>
			<line class="st1" x1="75.23" y1="-189.23" x2="30.21" y2="-144.21"/>
			<line class="st1" x1="75.23" y1="-183.23" x2="36.21" y2="-144.21"/>
			<line class="st1" x1="75.24" y1="-177.24" x2="42.21" y2="-144.21"/>
			<line class="st1" x1="75.24" y1="-171.24" x2="48.21" y2="-144.21"/>
			<line class="st1" x1="75.24" y1="-165.24" x2="54.21" y2="-144.21"/>
			<line class="st1" x1="75.25" y1="-159.25" x2="60.21" y2="-144.21"/>
			<line class="st1" x1="75.25" y1="-153.25" x2="66.21" y2="-144.21"/>
			<line class="st1" x1="75.26" y1="-147.25" x2="72.21" y2="-144.21"/>
		</g>
	</g>
</pattern>
<polygon class="st2" points="82.49,150.16 45.16,179.72 45.16,18 157.77,31.19 157.77,179.48 120.26,150.16 120.26,58.78 
	82.74,58.78 "/>
<pattern  id="SVGID_1_" xlink:href="#Diamond" patternTransform="matrix(1.0573 0 0 1.0573 815.852 675.8709)">
</pattern>
<polygon class="st3" points="82.49,150.44 45.16,180.01 45.16,18.28 157.77,31.47 157.77,179.76 120.26,150.44 120.26,59.06 
	82.74,59.06 "/>
</svg>
