<?xml version="1.0" encoding="utf-8"?>
<!-- Generator: Adobe Illustrator 24.1.1, SVG Export Plug-In . SVG Version: 6.00 Build 0)  -->
<svg version="1.1" id="Итоговый_вариант"
	 xmlns="http://www.w3.org/2000/svg" xmlns:xlink="http://www.w3.org/1999/xlink" x="0px" y="0px" viewBox="0 0 32 32"
	 style="enable-background:new 0 0 32 32;" xml:space="preserve">
<style type="text/css">
	.st0{fill:#F6A12C;}
	.st1{fill:#FFFFFF;}
	.st2{fill:#ED6D2E;}
	.st3{fill:#E34228;}
</style>
<g>
	<g>
		<path class="st0" d="M16,2.55c-4.79,0-8.68,3.89-8.68,8.68c0,3.33,1.87,6.22,4.62,7.67c0.34,0.18,0.7,0.34,1.07,0.48v-1.07h0.02
			c-0.01,0-0.01,0-0.02-0.01c-2.76-1.16-4.69-3.9-4.69-7.08c0-4.24,3.44-7.68,7.68-7.68s7.68,3.44,7.68,7.68
			c0,3.18-1.94,5.91-4.69,7.08c-0.01,0-0.01,0.01-0.02,0.01h0.02v1.07c0.37-0.14,0.73-0.29,1.07-0.48c2.75-1.46,4.62-4.35,4.62-7.67
			C24.68,6.43,20.79,2.55,16,2.55z"/>
		<rect x="11.94" y="18.31" class="st0" width="1.07" height="3.59"/>
		<rect x="18.99" y="18.31" class="st0" width="1.07" height="3.59"/>
	</g>
	<path class="st1" d="M13.03,18.31h-0.02v-0.01C13.02,18.31,13.02,18.31,13.03,18.31z"/>
	<path class="st1" d="M18.99,18.31L18.99,18.31l-0.02,0.01C18.98,18.31,18.98,18.31,18.99,18.31z"/>
	<path class="st2" d="M20.15,24.38h-8.37c-0.49,0-0.89-0.4-0.89-0.89v0c0-0.49,0.4-0.89,0.89-0.89h8.37c0.49,0,0.89,0.4,0.89,0.89v0
		C21.04,23.98,20.64,24.38,20.15,24.38z"/>
	<path class="st2" d="M18.73,26.97h-5.51c-0.49,0-0.89-0.4-0.89-0.89v0c0-0.49,0.4-0.89,0.89-0.89h5.51c0.49,0,0.89,0.4,0.89,0.89v0
		C19.61,26.57,19.21,26.97,18.73,26.97z"/>
	<path class="st2" d="M17.06,29.45h-2.18c-0.49,0-0.89-0.4-0.89-0.89v0c0-0.49,0.4-0.89,0.89-0.89h2.18c0.49,0,0.89,0.4,0.89,0.89v0
		C17.95,29.05,17.55,29.45,17.06,29.45z"/>
	<polygon class="st3" points="15.49,14.54 15.49,13.15 19.15,9.86 15.49,6.92 15.49,5.54 20.39,9.54 20.39,10.08 	"/>
	<polygon class="st3" points="16.4,8.96 16.4,10.34 12.74,13.63 16.4,16.57 16.4,17.95 11.5,13.96 11.5,13.41 	"/>
</g>
</svg>
