<?xml version="1.0" encoding="utf-8"?>
<!-- Generator: Adobe Illustrator 24.1.1, SVG Export Plug-In . SVG Version: 6.00 Build 0)  -->
<svg version="1.1" id="Слой_1" xmlns="http://www.w3.org/2000/svg" xmlns:xlink="http://www.w3.org/1999/xlink" x="0px" y="0px"
	 viewBox="0 0 175.19 200" style="enable-background:new 0 0 175.19 200;" xml:space="preserve">
<style type="text/css">
	.st0{fill:#1A2131;}
	.st1{fill:#016397;}
	.st2{fill:url(#SVGID_1_);}
</style>
<path class="st0" d="M8.75,79.03h15.86v-3.95h-6.37v-3.14c0-3.65-2.56-5.23-4.79-5.23c-2.16,0-4.7,1.63-4.7,5.26V79.03L8.75,79.03z
	 M11.65,75.08v-1.4c0-2.14,0.49-2.91,1.84-2.91c1.19,0,1.84,0.65,1.84,2.46v1.84H11.65L11.65,75.08z M8.75,63.94h15.86v-3.95h-6.44
	v-1.14c0-2.14,3.05-2.77,6.44-4.46v-4.35c-4.65,2.23-6.6,2.72-7.42,4.35c-0.84-1.81-2.14-2.72-3.88-2.72
	c-2.37,0-4.56,1.93-4.56,5.19V63.94L8.75,63.94z M11.65,59.99v-2c0-1.49,0.61-2.26,1.79-2.26c1.35,0,1.81,1.07,1.81,2.16v2.09H11.65
	L11.65,59.99z M21.7,36.45v7.74h-3.81v-7.23h-2.91v7.23h-3.33v-7.58H8.75v11.53h15.86v-11.7H21.7L21.7,36.45z M9.77,22.78
	c-0.86,2-1.23,3.6-1.23,5.37c0,3.67,1.81,6.04,4.56,6.04c5.7,0,4.74-8.07,7.35-8.07c0.93,0,1.46,0.82,1.46,2.33
	c0,1.74-0.53,3.14-2.05,5.42h3.42c0.81-1.58,1.53-2.95,1.53-5.72c0-3.54-1.77-6.09-4.81-6.09c-5.53,0-4.86,8.07-7.26,8.07
	c-0.79,0-1.3-0.91-1.3-2.33c0-1.35,0.4-2.72,1.42-5.02H9.77L9.77,22.78z M9.77,8.74c-0.86,2-1.23,3.6-1.23,5.37
	c0,3.67,1.81,6.05,4.56,6.05c5.7,0,4.74-8.07,7.35-8.07c0.93,0,1.46,0.81,1.46,2.33c0,1.74-0.53,3.14-2.05,5.42h3.42
	c0.81-1.58,1.53-2.95,1.53-5.72c0-3.53-1.77-6.09-4.81-6.09c-5.53,0-4.86,8.07-7.26,8.07c-0.79,0-1.3-0.91-1.3-2.33
	c0-1.35,0.4-2.72,1.42-5.02H9.77L9.77,8.74z"/>
<path class="st0" d="M124.94,108.55c0-22.66-18.37-41.02-41.03-41.02c-5.97-0.33-15.51,2.22-20.51,5.5
	c-12.02,6.17-21.18,22.03-20.51,35.53v45.87v36.19H63.4v-24.03v-22.49c5.01,3.27,14.54,5.83,20.51,5.5
	C106.57,149.58,124.94,131.21,124.94,108.55L124.94,108.55z M63.4,108.55L63.4,108.55c0-11.33,9.18-20.51,20.51-20.51
	c11.33,0,20.51,9.18,20.51,20.51c0,11.33-9.19,20.51-20.51,20.51C72.59,129.07,63.4,119.88,63.4,108.55L63.4,108.55z"/>
<path class="st1" d="M8.75,191.09h15.86v-7.72c0-4.63-2.84-5.6-4.65-5.6c-1.86,0-3.49,1.12-4.07,3.37
	c-0.65-1.33-1.84-2.16-3.16-2.16c-1.77,0-3.98,1.51-3.98,5.26V191.09L8.75,191.09z M11.65,187.14v-2.07c0-1.44,0.86-2.02,1.68-2.02
	c0.84,0,1.72,0.58,1.72,2.02v2.07H11.65L11.65,187.14z M17.96,187.14v-2.77c0-1.39,0.63-2.42,1.79-2.42c1.37,0,1.95,0.77,1.95,2.95
	v2.23H17.96L17.96,187.14z M8.75,165.58v4.58l15.86,6.39v-4.18l-3.14-1.19v-7.09l3.14-1.3v-4.26L8.75,165.58L8.75,165.58z
	 M18.7,165.26v4.89l-6.16-2.33L18.7,165.26L18.7,165.26z M8.75,144.94h8.84c2.84,0,3.93,1.93,3.93,4.02c0,2.28-1.37,3.93-3.65,3.93
	H8.75v3.95h9.02c4.91,0,7.05-3.32,7.05-7.93c0-4.35-1.81-7.93-7.07-7.93h-9V144.94L8.75,144.94z M14.63,129.03l-5.88,5.09v3.44
	h15.86v-3.95H14.7l4.98-4.28v-0.6l-4.98-4.28h9.91v-3.95H8.75v3.44L14.63,129.03L14.63,129.03z M8.75,107.7v4.58l15.86,6.39v-4.18
	l-3.14-1.19v-7.09l3.14-1.3v-4.26L8.75,107.7L8.75,107.7z M18.7,107.38v4.88l-6.16-2.33L18.7,107.38L18.7,107.38z M8.75,82.75v3.95
	h9.7l-9.7,8.47v3.63h15.86v-3.96H14.45l10.16-8.77v-3.32H8.75L8.75,82.75z"/>
<linearGradient id="SVGID_1_" gradientUnits="userSpaceOnUse" x1="104.4291" y1="200.9211" x2="104.4291" y2="1.0723">
	<stop  offset="0.0273" style="stop-color:#123859"/>
	<stop  offset="0.3559" style="stop-color:#114972"/>
	<stop  offset="0.7369" style="stop-color:#075C8C"/>
	<stop  offset="0.9562" style="stop-color:#016397"/>
</linearGradient>
<path class="st2" d="M83.92,26.5c-5.43-0.19-15.3,1.07-20.51,2.61V8.06H42.89v6.49V37.5v25.19c4.62-4.54,14.31-10.28,20.51-12.15
	c5.18-2.09,14.93-3.76,20.51-3.52c33.98,0,61.54,27.55,61.54,61.54c0,33.99-27.55,61.54-61.54,61.54v20.51
	c45.31,0,82.05-36.74,82.05-82.05C165.97,63.24,129.23,26.5,83.92,26.5L83.92,26.5z"/>
</svg>
