<?xml version="1.0" encoding="UTF-8"?>
<svg width="262px" height="303px" viewBox="0 0 262 303" version="1.1" xmlns="http://www.w3.org/2000/svg" xmlns:xlink="http://www.w3.org/1999/xlink">
    <!-- Generator: Sketch 61.2 (89653) - https://sketch.com -->
    <title>logo</title>
    <desc>Created with Sketch.</desc>
    <g id="logo" stroke="none" stroke-width="1" fill="none" fill-rule="evenodd">
        <path d="M60.234375,-0.3584213 L121.697266,38.0515954 L121.697266,109.685825 L59.4240975,145.162941 L-1.22851562,109.67035 L-1.22851562,38.0515954 L60.234375,-0.3584213 Z M117.696484,43.2205787 L5.23148437,108.815579 L59.45,140.544 L117.697,107.36 L117.696484,43.2205787 Z M60.234,4.358 L2.771,40.269 L2.77048438,104.462579 L115.349484,38.8015787 L60.234,4.358 Z" id="Combined-Shape" fill="#384052" fill-rule="nonzero"></path>
        <path d="M200.462891,-0.3584213 L261.925781,38.0515954 L261.925781,109.685825 L199.652613,145.162941 L139,109.67035 L139,38.0515954 L200.462891,-0.3584213 Z M200.462,4.358 L143,40.268 L143,107.376 L199.679,140.544 L257.69,107.493579 L195.351293,73.9289759 L255.578,38.8015787 L200.462,4.358 Z M257.925,43.2205787 L205.574,73.754 L257.925,101.940579 L257.925,43.2205787 Z" id="Combined-Shape" fill="#384052" fill-rule="nonzero"></path>
        <path d="M200.462891,156.641579 L261.925781,195.051595 L261.925781,266.685825 L199.652613,302.162941 L139,266.67035 L139,195.051595 L200.462891,156.641579 Z M200.497,297.077579 L198.883,297.077579 L199.679,297.544 L200.497,297.077579 Z M200.462,161.358 L143,197.268 L143,264.376 L197.962,296.538579 L197.962891,226.926758 L257.925,226.926579 L257.925,197.269 L200.462,161.358 Z M202.962,231.926 L202.962,295.673579 L257.925,264.36 L257.925,231.926579 L202.962,231.926 Z" id="Combined-Shape" fill="#384052" fill-rule="nonzero"></path>
        <path d="M121.925781,195.051595 L60.4628906,156.641579 L-1,195.051595 L-1,266.67035 L59.6526131,302.162941 L121.925781,266.685825 L121.925781,195.051595 Z M60.462,161.358 L117.925,197.269 L117.925,264.36 L59.679,297.544 L3,264.376 L3,197.268 L60.462,161.358 Z" id="Path-Copy-3" fill="#384052" fill-rule="nonzero"></path>
        <polygon id="Path-5" fill="#1799B0" fill-rule="nonzero" points="110.189682 50.3492979 112.657974 54.6975771 18.3474275 108.232783 15.879135 103.884504"></polygon>
        <polygon id="Path-5-Copy-2" fill="#1799B0" fill-rule="nonzero" points="59.0764006 167.82586 61.5446932 172.17414 12.596 199.959 12.5960851 256.716797 7.5960851 256.716797 7.5960851 197.048566"></polygon>
        <polygon id="Path-5-Copy-4" fill="#1799B0" fill-rule="nonzero" points="252.310547 234.004146 252.310547 239.004146 211.5 239.004 211.5 278.125 206.5 278.125 206.5 234.004146"></polygon>
        <polygon id="Path-5-Copy-3" fill="#1799B0" fill-rule="nonzero" transform="translate(84.474304, 242.271329) scale(-1, -1) translate(-84.474304, -242.271329) " points="108.980315 197.82586 111.448608 202.17414 62.5 229.959 62.5 286.716797 57.5 286.716797 57.5 227.048566"></polygon>
        <polygon id="Path-5-Copy" fill="#1799B0" fill-rule="nonzero" points="251.076401 50.3492979 253.544693 54.6975771 220.356 73.537 253.49315 91.328649 251.127944 95.733851 210.013102 73.6588031"></polygon>
    </g>
</svg>