<svg xmlns="http://www.w3.org/2000/svg" viewBox="0 0 189.98 190.35"><defs><style>.cls-1{fill:#71b961;}.cls-2{fill:#5d9ad3;}.cls-3{fill:#30bbd8;}.cls-4{fill:#027a95;}</style></defs><g id="Слой_2" data-name="Слой 2"><g id="Слой_2_копия_" data-name="Слой 2 (копия)"><path class="cls-1" d="M112.94,11.52A120.38,120.38,0,0,0,95.15,4.68l-.92-.27-.77.23-.14,0c-.52.16-1,.32-1.55.5a122.17,122.17,0,0,0-17.92,7.5l0,0-.9.45c.35,0,.7,0,1,.06a86.09,86.09,0,0,1,17.78,3l.8.21.72-.23.14,0c.48-.16,1-.32,1.47-.46A90.43,90.43,0,0,1,112.67,12h.08l1-.09Zm-.57,166.25a90.85,90.85,0,0,1-17.27-3.64l-.85-.27-.69.2-.83.25-.89.24a86.5,86.5,0,0,1-17.53,3h-.18l-1,.07.88.45a120.26,120.26,0,0,0,17.52,7.37l.92.31.73-.21.14,0c.55-.16,1.1-.31,1.65-.49a118.09,118.09,0,0,0,17.34-6.7l.13-.06.85-.41Zm-66-33.28c-14.13-14.13-24.5-30.78-30-48.17-.19-.57-.36-1.14-.52-1.71s-.35-1.17-.51-1.77a88.68,88.68,0,0,1-3.08-17.92c0-.68-.09-1.37-.11-2s-.05-1.36-.05-2C11.91,53.71,17.4,39.05,28,28.45S52.9,12.51,69.82,12.58c.54-.31,1.08-.6,1.63-.88A123.75,123.75,0,0,1,89.7,3.8l.1,0A97.62,97.62,0,0,0,66.87.9c-19,0-35.83,6.32-48,18.46-17.3,17.31-22.78,44-15,73.21.15.58.31,1.17.47,1.75s.35,1.2.54,1.8a120,120,0,0,0,7,17.84c.29.6.59,1.2.89,1.78s.58,1.18.9,1.76a144.22,144.22,0,0,0,57,58.26c.61,0,1.23,0,1.85-.07a82.09,82.09,0,0,0,9-.93c2.77-.45,5.59-1,8.4-1.75l.16,0A121.94,121.94,0,0,1,46.37,144.49ZM185.82,96.28h0c-.13-.47-.27-.94-.41-1.42l-.08-.26c-.17-.54-.35-1.09-.53-1.65a120.51,120.51,0,0,0-7.2-17.42c-.26-.54-.53-1.08-.82-1.61s-.62-1.18-.93-1.76a141.7,141.7,0,0,0-24.5-32.65,140.58,140.58,0,0,0-35.06-25.75c-.57,0-1.15.06-1.73.12A88.11,88.11,0,0,0,96.9,17.14l-.07,0c17,5.55,33.32,15.79,47.2,29.67,13.44,13.43,23.54,29.28,29.21,45.82.19.56.39,1.14.57,1.71s.34,1,.5,1.59a90.34,90.34,0,0,1,3.56,17.39c.07.62.13,1.25.17,1.87s.1,1.28.13,1.89c1,18.32-4.58,34.58-15.77,45.76s-27.62,16.86-46.11,15.75c-.56.28-1.11.56-1.67.82-1.37.68-2.77,1.34-4.15,2A122.84,122.84,0,0,1,97,186.51l-.18.05c29.43,8.25,57.26,2.84,74.71-14.6C189.37,154.07,194.59,126.49,185.82,96.28Z"/><path class="cls-2" d="M171.08,18.38C153.4.71,125-4.62,95.16,4.13l0,0c-.3.08-.59.16-.88.26l-.77.23-.14,0c-.52.16-1,.32-1.55.5a122.17,122.17,0,0,0-17.92,7.5l0,0-.9.45-.74.4-.12.07c-.57.29-1.15.6-1.71.92a144.42,144.42,0,0,0-56.2,56.58c0,.64,0,1.29.06,1.93a85.48,85.48,0,0,0,2.71,17.79c0,.06,0,.12,0,.18,5.69-16.3,15.69-31.88,29-45.17S75.06,22.42,91.5,16.74l.18-.06.86-.3.72-.23.14,0c.48-.16,1-.32,1.47-.46A90.43,90.43,0,0,1,112.67,12h.08l1-.09.86-.06h.13c.6-.06,1.21-.09,1.83-.12,18.21-.94,34.35,4.65,45.47,15.77s16.47,26.26,15.83,44.16L178,72l.63,1.21a126.07,126.07,0,0,1,7.56,17.73.49.49,0,0,1,0,.11C193.8,62,188.31,35.62,171.08,18.38Zm5.45,96.69-.5,0c-.17-2.07-.42-4.16-.75-6.22a91.84,91.84,0,0,0-2.48-11s0-.06,0-.09c-5.66,16.5-15.72,32.27-29.17,45.71-14.19,14.2-30.93,24.59-48.38,30.05l-.13,0-.85.26-.69.2-.83.25-.89.24a86.5,86.5,0,0,1-17.53,3h-.18l-1,.07-.86,0h-.14c-.6,0-1.21,0-1.81,0-17.28.3-32.09-5.18-42.77-15.87C16.66,151,11.18,135.81,11.73,118.05c-.3-.55-.57-1.1-.85-1.65A124.56,124.56,0,0,1,3.47,98.16L3.41,98c-7.69,29.16-2.24,55.69,15.07,73s43.89,22.75,73,15.06l.08,0,.89-.23.73-.21.14,0c.55-.16,1.1-.31,1.65-.49a118.09,118.09,0,0,0,17.34-6.7l.13-.06.85-.41h0l.72-.36.15-.07c.54-.26,1.06-.52,1.57-.8a140.36,140.36,0,0,0,35.17-25.82,141.06,141.06,0,0,0,25.22-34c0-.56-.08-1.12-.13-1.69Z"/><path class="cls-3" d="M109.35,81.82v8.33A19.38,19.38,0,0,1,90,109.52H80v4H90a23.39,23.39,0,0,0,23.36-23.37V81.82Zm0,0v8.33A19.38,19.38,0,0,1,90,109.52H80v4H90a23.39,23.39,0,0,0,23.36-23.37V81.82Zm0,0v8.33A19.38,19.38,0,0,1,90,109.52H80v4H90a23.39,23.39,0,0,0,23.36-23.37V81.82Zm0,0v8.33A19.38,19.38,0,0,1,90,109.52H80v4H90a23.39,23.39,0,0,0,23.36-23.37V81.82Zm-9.07-32.7h-9A13.1,13.1,0,0,0,78.21,62.2v8a9.09,9.09,0,0,1-9.08,9.08H61.24A13.08,13.08,0,0,0,48.17,92.4v8a13.09,13.09,0,0,0,13.07,13.08H79.46v-4H61.24a9.09,9.09,0,0,1-9.07-9.08v-8a9.08,9.08,0,0,1,9.07-9.08h7.89A13.1,13.1,0,0,0,82.21,70.24v-8a9.09,9.09,0,0,1,9.08-9.08h9a9.08,9.08,0,0,1,9.07,9.08V75.82h4V62.2A13.09,13.09,0,0,0,100.28,49.12Zm9.07,32.7v8.33A19.38,19.38,0,0,1,90,109.52H80v4H90a23.39,23.39,0,0,0,23.36-23.37V81.82Zm0,0v8.33A19.38,19.38,0,0,1,90,109.52H79.46v4H90a23.39,23.39,0,0,0,23.36-23.37V81.82Z"/><path class="cls-4" d="M127.06,76.82H98.32A23.4,23.4,0,0,0,75,100.18v8.34h4v-8.34A19.38,19.38,0,0,1,98.32,80.82h28.74a9.09,9.09,0,0,1,9.08,9.08v8a9.09,9.09,0,0,1-9.08,9.08h-7.89a13.08,13.08,0,0,0-13.07,13.07v8A9.08,9.08,0,0,1,97,137.21H88A9.09,9.09,0,0,1,79,128.14V114.52H75v13.62A13.09,13.09,0,0,0,88,141.21h9a13.09,13.09,0,0,0,13.08-13.07v-8a9.08,9.08,0,0,1,9.07-9.07h7.89a13.09,13.09,0,0,0,13.08-13.08v-8A13.08,13.08,0,0,0,127.06,76.82Z"/></g></g></svg>