<svg width="180" height="180" viewBox="0 0 180 180" fill="none" xmlns="http://www.w3.org/2000/svg">
<path d="M39.459 158.432C38.7186 158.429 37.9955 158.203 37.3802 157.782C36.7648 157.361 36.2845 156.765 35.9991 156.066C35.7138 155.368 35.6361 154.6 35.7759 153.857C35.9156 153.114 36.2666 152.429 36.7849 151.889C49.3644 138.86 59.6842 134.799 69.665 130.854C100.059 118.864 105.972 111.301 106.745 107.856C106.884 107.108 106.823 106.336 106.568 105.621C106.312 104.906 105.872 104.275 105.294 103.795C102.281 100.465 93.9955 106.951 86.6135 112.667C78.4594 118.999 70.776 125.003 63.846 123.848C62.4197 123.596 61.0611 123.041 59.8578 122.219C58.6544 121.397 57.633 120.326 56.8594 119.076C55.8733 117.711 55.1933 116.142 54.8678 114.479C54.5424 112.816 54.5794 111.1 54.9763 109.453C57.1984 100.812 69.439 94.5765 82.3952 87.9946C93.3929 82.3942 105.841 76.0626 107.422 70.0003C107.599 69.2038 107.594 68.3766 107.408 67.5824C107.221 66.7883 106.859 66.0484 106.349 65.42C105.866 64.475 105.171 63.661 104.319 63.0453C103.468 62.4295 102.485 62.0297 101.453 61.8788C93.9202 60.9743 81.3783 72.9256 70.2864 83.4527C53.884 98.9836 36.8978 115.073 25.2034 102.544C22.8224 100.13 21.0506 97.161 20.0403 93.8925C19.03 90.6241 18.8113 87.1538 19.4032 83.7799C22.1526 67.3252 43.3948 47.3295 76.2184 30.2782C96.4436 19.7703 123.448 19.2122 141.903 28.9118C153.598 35.051 160.735 44.4427 162.43 56.0668C164.821 72.0403 158.437 80.3158 152.524 84.3765C142.732 91.2085 129.135 90.1501 123.486 86.8399C123.057 86.5872 122.681 86.2505 122.379 85.8492C122.077 85.4479 121.856 84.9898 121.727 84.5011C121.468 83.5139 121.602 82.4619 122.102 81.5763C122.601 80.6907 123.424 80.0442 124.39 79.7789C125.356 79.5137 126.386 79.6514 127.252 80.1618C130.548 82.0863 140.981 83.1256 148.287 78.0256C154.163 73.9071 156.422 66.9211 154.991 57.2215C153.278 45.6744 145.048 39.208 138.457 35.7631C122.036 27.122 97.8371 27.7763 79.6457 37.1487C49.3832 52.7951 29.1392 71.232 26.8229 85.0693C26.4184 87.2569 26.5507 89.5128 27.2079 91.6353C27.8652 93.7578 29.0269 95.6808 30.5892 97.2323C37.1615 104.257 51.3041 90.7659 65.1265 77.7177C78.949 64.6694 91.3967 52.7951 102.338 54.1423C104.451 54.4332 106.474 55.205 108.257 56.4007C110.039 57.5964 111.537 59.1856 112.639 61.0513C113.747 62.588 114.508 64.357 114.867 66.2308C115.225 68.1046 115.171 70.0362 114.71 71.8864C112.281 81.3165 99.4002 87.8599 85.766 94.8074C75.3898 100.081 63.62 106.066 62.2829 111.339C62.1489 111.935 62.1522 112.555 62.2927 113.149C62.4333 113.744 62.7071 114.297 63.0927 114.765C63.2824 115.137 63.5491 115.462 63.8744 115.718C64.1996 115.974 64.5755 116.154 64.9759 116.247C68.7422 116.862 76.0677 111.147 81.9244 106.624C91.811 98.9259 103.035 90.1886 110.699 98.6565C112.116 100.055 113.159 101.801 113.73 103.727C114.3 105.654 114.378 107.698 113.957 109.665C111.904 118.671 98.6657 127.717 72.2637 138.109C62.5843 141.958 53.4321 145.519 42.0201 157.354C41.3313 158.033 40.4156 158.418 39.459 158.432V158.432Z" fill="black"/>
<path d="M167.703 114.611C165.271 114.611 162.893 113.874 160.871 112.493C158.849 111.112 157.273 109.149 156.342 106.853C155.411 104.557 155.168 102.03 155.642 99.5922C156.117 97.1544 157.288 94.9152 159.007 93.1576C160.727 91.4001 162.918 90.2032 165.304 89.7183C167.689 89.2333 170.162 89.4822 172.409 90.4334C174.656 91.3846 176.576 92.9953 177.927 95.062C179.279 97.1286 180 99.5584 180 102.044C179.995 105.375 178.698 108.569 176.393 110.925C174.088 113.28 170.963 114.606 167.703 114.611V114.611ZM167.703 97.1749C166.761 97.1749 165.839 97.4604 165.056 97.9955C164.272 98.5305 163.662 99.2909 163.301 100.181C162.94 101.07 162.846 102.049 163.03 102.994C163.214 103.938 163.668 104.806 164.334 105.487C165 106.168 165.849 106.632 166.773 106.819C167.698 107.007 168.656 106.911 169.526 106.542C170.397 106.174 171.141 105.55 171.664 104.749C172.188 103.948 172.467 103.007 172.467 102.044C172.467 101.405 172.344 100.771 172.105 100.181C171.865 99.5899 171.514 99.0531 171.072 98.601C170.629 98.1489 170.104 97.7902 169.526 97.5455C168.948 97.3008 168.329 97.1749 167.703 97.1749V97.1749Z" fill="black"/>
</svg>
